{
  "accessors": [
    {
      "bufferView": 2,
      "componentType": 5126,
      "count": 18380,
      "max": [
        13.148933410644531,
        23.172542572021484,
        5.015408039093018
      ],
      "min": [
        -0.1897316575050354,
        1.4987409114837646,
        -0.6898946166038513
      ],
      "type": "VEC3"
    },
    {
      "bufferView": 2,
      "byteOffset": 220560,
      "componentType": 5126,
      "count": 18380,
      "max": [
        0.6701794862747192,
        0.7723128795623779,
        0.9871560335159302
      ],
      "min": [
        -0.9999772906303406,
        -0.7539758682250977,
        -0.9996407628059387
      ],
      "type": "VEC3"
    },
    {
      "bufferView": 1,
      "componentType": 5126,
      "count": 18380,
      "max": [
        0.9671692252159119,
        0.990994930267334
      ],
      "min": [
        0.0,
        -4.76837158203125e-07
      ],
      "type": "VEC2"
    },
    {
      "bufferView": 1,
      "byteOffset": 147040,
      "componentType": 5126,
      "count": 18380,
      "max": [
        0.9671692252159119,
        0.990994930267334
      ],
      "min": [
        0.0,
        -4.76837158203125e-07
      ],
      "type": "VEC2"
    },
    {
      "bufferView": 0,
      "componentType": 5125,
      "count": 34668,
      "type": "SCALAR"
    },
    {
      "bufferView": 2,
      "byteOffset": 441120,
      "componentType": 5126,
      "count": 1543,
      "max": [
        4.463958740234375,
        21.474790573120117,
        2.617034912109375
      ],
      "min": [
        0.5905782580375671,
        15.865744590759277,
        0.21018657088279724
      ],
      "type": "VEC3"
    },
    {
      "bufferView": 2,
      "byteOffset": 459636,
      "componentType": 5126,
      "count": 1543,
      "max": [
        0.9991208910942078,
        0.9949501156806946,
        0.9987801909446716
      ],
      "min": [
        -0.9973252415657043,
        -0.9956546425819397,
        -0.9995212554931641
      ],
      "type": "VEC3"
    },
    {
      "bufferView": 1,
      "byteOffset": 294080,
      "componentType": 5126,
      "count": 1543,
      "max": [
        3.7366600036621094,
        3.9095118045806885
      ],
      "min": [
        -2.7904670238494873,
        -2.9095118045806885
      ],
      "type": "VEC2"
    },
    {
      "bufferView": 0,
      "byteOffset": 138672,
      "componentType": 5125,
      "count": 7800,
      "type": "SCALAR"
    },
    {
      "bufferView": 2,
      "byteOffset": 478152,
      "componentType": 5126,
      "count": 18380,
      "max": [
        0.1897316575050354,
        23.172542572021484,
        5.015408039093018
      ],
      "min": [
        -13.148933410644531,
        1.4987409114837646,
        -0.6898946166038513
      ],
      "type": "VEC3"
    },
    {
      "bufferView": 2,
      "byteOffset": 698712,
      "componentType": 5126,
      "count": 18380,
      "max": [
        0.9999772906303406,
        0.7723137140274048,
        0.9871562123298645
      ],
      "min": [
        -0.670181930065155,
        -0.7539820671081543,
        -0.9996407628059387
      ],
      "type": "VEC3"
    },
    {
      "bufferView": 1,
      "byteOffset": 306424,
      "componentType": 5126,
      "count": 18380,
      "max": [
        0.9671692252159119,
        0.990994930267334
      ],
      "min": [
        0.0,
        -4.76837158203125e-07
      ],
      "type": "VEC2"
    },
    {
      "bufferView": 1,
      "byteOffset": 453464,
      "componentType": 5126,
      "count": 18380,
      "max": [
        0.9671692252159119,
        0.990994930267334
      ],
      "min": [
        0.0,
        -4.76837158203125e-07
      ],
      "type": "VEC2"
    },
    {
      "bufferView": 0,
      "byteOffset": 169872,
      "componentType": 5125,
      "count": 34668,
      "type": "SCALAR"
    },
    {
      "bufferView": 2,
      "byteOffset": 919272,
      "componentType": 5126,
      "count": 1543,
      "max": [
        -0.5905782580375671,
        21.474790573120117,
        2.617034912109375
      ],
      "min": [
        -4.463958740234375,
        15.865744590759277,
        0.21018657088279724
      ],
      "type": "VEC3"
    },
    {
      "bufferView": 2,
      "byteOffset": 937788,
      "componentType": 5126,
      "count": 1543,
      "max": [
        0.9973249435424805,
        0.9949547052383423,
        0.9987801909446716
      ],
      "min": [
        -0.999120831489563,
        -0.9956557750701904,
        -0.9995211958885193
      ],
      "type": "VEC3"
    },
    {
      "bufferView": 1,
      "byteOffset": 600504,
      "componentType": 5126,
      "count": 1543,
      "max": [
        3.7366600036621094,
        3.9095118045806885
      ],
      "min": [
        -2.7904670238494873,
        -2.9095118045806885
      ],
      "type": "VEC2"
    },
    {
      "bufferView": 0,
      "byteOffset": 308544,
      "componentType": 5125,
      "count": 7800,
      "type": "SCALAR"
    }
  ],
  "asset": {
    "extras": {
      "author": "Boooooop (https://sketchfab.com/boooop)",
      "license": "CC-BY-4.0 (http://creativecommons.org/licenses/by/4.0/)",
      "source": "https://sketchfab.com/3d-models/angel-wings-917b4019a1614d179e70cda895fd3f16",
      "title": "Angel Wings"
    },
    "generator": "Sketchfab-15.71.0",
    "version": "2.0"
  },
  "bufferViews": [
    {
      "buffer": 0,
      "byteLength": 339744,
      "name": "floatBufferViews",
      "target": 34963
    },
    {
      "buffer": 0,
      "byteLength": 612848,
      "byteOffset": 339744,
      "byteStride": 8,
      "name": "floatBufferViews",
      "target": 34962
    },
    {
      "buffer": 0,
      "byteLength": 956304,
      "byteOffset": 952592,
      "byteStride": 12,
      "name": "floatBufferViews",
      "target": 34962
    }
  ],
  "buffers": [
    {
      "byteLength": 1908896,
      "uri": "scene.bin"
    }
  ],
  "extensionsUsed": [
    "KHR_materials_specular"
  ],
  "images": [
    {
      "uri": "textures/Feather_baseColor.png"
    },
    {
      "uri": "textures/Feather_metallicRoughness.png"
    },
    {
      "uri": "textures/Wing_baseColor.jpeg"
    }
  ],
  "materials": [
    {
      "alphaMode": "BLEND",
      "doubleSided": true,
      "emissiveFactor": [
        0.15,
        0.1297236873,
        0.1297236873
      ],
      "extensions": {
        "KHR_materials_specular": {
          "specularColorFactor": [
            1.0,
            1.0,
            1.0
          ],
          "specularFactor": 0.0
        }
      },
      "name": "Feather",
      "pbrMetallicRoughness": {
        "baseColorFactor": [
          1.0,
          1.0,
          1.0,
          0.95
        ],
        "baseColorTexture": {
          "index": 0
        },
        "metallicFactor": 0.0,
        "metallicRoughnessTexture": {
          "index": 1
        }
      }
    },
    {
      "emissiveFactor": [
        0.212271,
        0.371169,
        0.409
      ],
      "extensions": {
        "KHR_materials_specular": {
          "specularColorFactor": [
            1.0,
            1.0,
            1.0
          ],
          "specularFactor": 1.0
        }
      },
      "name": "Wing",
      "pbrMetallicRoughness": {
        "baseColorTexture": {
          "index": 2
        },
        "metallicFactor": 0.0
      }
    }
  ],
  "meshes": [
    {
      "name": "polySurface2197_Feather_0",
      "primitives": [
        {
          "attributes": {
            "NORMAL": 1,
            "POSITION": 0,
            "TEXCOORD_0": 2,
            "TEXCOORD_1": 3
          },
          "indices": 4,
          "material": 0,
          "mode": 4
        }
      ]
    },
    {
      "name": "polySurface2197_Wing_0",
      "primitives": [
        {
          "attributes": {
            "NORMAL": 6,
            "POSITION": 5,
            "TEXCOORD_0": 7
          },
          "indices": 8,
          "material": 1,
          "mode": 4
        }
      ]
    },
    {
      "name": "polySurface2631_Feather_0",
      "primitives": [
        {
          "attributes": {
            "NORMAL": 10,
            "POSITION": 9,
            "TEXCOORD_0": 11,
            "TEXCOORD_1": 12
          },
          "indices": 13,
          "material": 0,
          "mode": 4
        }
      ]
    },
    {
      "name": "polySurface2631_Wing_0",
      "primitives": [
        {
          "attributes": {
            "NORMAL": 15,
            "POSITION": 14,
            "TEXCOORD_0": 16
          },
          "indices": 17,
          "material": 1,
          "mode": 4
        }
      ]
    }
  ],
  "nodes": [
    {
      "children": [
        1
      ],
      "matrix": [
        0.06666667014360428,
        0.0,
        0.0,
        0.0,
        0.0,
        1.4802974433703992e-17,
        -0.06666667014360428,
        0.0,
        0.0,
        0.06666667014360428,
        1.4802974433703992e-17,
        0.0,
        0.0,
        0.0,
        0.0,
        1.0
      ],
      "name": "Sketchfab_model"
    },
    {
      "children": [
        2
      ],
      "matrix": [
        1.0,
        0.0,
        0.0,
        0.0,
        0.0,
        0.0,
        1.0,
        0.0,
        0.0,
        -1.0,
        0.0,
        0.0,
        0.0,
        0.0,
        0.0,
        1.0
      ],
      "name": "88cdca45322f4c18a569ce3345ec6457.fbx"
    },
    {
      "children": [
        3,
        6
      ],
      "name": "RootNode"
    },
    {
      "children": [
        4,
        5
      ],
      "name": "polySurface2197"
    },
    {
      "mesh": 0,
      "name": "polySurface2197_Feather_0"
    },
    {
      "mesh": 1,
      "name": "polySurface2197_Wing_0"
    },
    {
      "children": [
        7,
        8
      ],
      "name": "polySurface2631"
    },
    {
      "mesh": 2,
      "name": "polySurface2631_Feather_0"
    },
    {
      "mesh": 3,
      "name": "polySurface2631_Wing_0"
    }
  ],
  "samplers": [
    {
      "magFilter": 9729,
      "minFilter": 9987,
      "wrapS": 10497,
      "wrapT": 10497
    }
  ],
  "scene": 0,
  "scenes": [
    {
      "name": "Sketchfab_Scene",
      "nodes": [
        0
      ]
    }
  ],
  "textures": [
    {
      "sampler": 0,
      "source": 0
    },
    {
      "sampler": 0,
      "source": 1
    },
    {
      "sampler": 0,
      "source": 2
    }
  ]
}
